<?xml version="1.0" standalone="no"?>
<!DOCTYPE svg PUBLIC "-//W3C//DTD SVG 1.1//EN" "http://www.w3.org/Graphics/SVG/1.1/DTD/svg11.dtd" >
<svg xmlns="http://www.w3.org/2000/svg">
<metadata>Generated by IcoMoon</metadata>
<defs>
<font id="dental" horiz-adv-x="1024">
<font-face units-per-em="1024" ascent="960" descent="-64" />
<missing-glyph horiz-adv-x="1024" />
<glyph unicode="&#x20;" horiz-adv-x="512" d="" />
<glyph unicode="&#xe9000;" d="M917.49 282.102h-827.253c-39.057 0-72.5 27.644-80.256 65.924-6.545 32.306-9.98 65.738-9.98 99.974 0 56.081 9.218 110.007 26.223 160.349 0.589 1.741 6.036-1.224 6.643 0.509 2.361 6.743 4.862 13.42 7.501 20.030 0.791 1.981-3.256 8.658-2.44 10.626 75.202 181.536 254.101 309.242 462.828 309.244 276.124 0.002 501.067-225.2 500.763-501.323-0.037-33.216-3.307-65.675-9.514-97.080-0.679-3.43-6.855-6.845-7.603-10.25-7.45-33.923-32.179-58.004-66.91-58.004z" />
<glyph unicode="&#xe9001;" d="M10.865 552.24h979.715c7.203-33.817 10.976-68.88 10.937-104.804-0.037-33.216-3.307-65.675-9.514-97.080-0.679-3.43-5.919-6.847-6.665-10.25-7.45-33.923-33.118-58.002-67.848-58.002h-827.253c-39.057 0-72.5 27.644-80.256 65.924-6.545 32.304-9.98 65.736-9.98 99.972 0 35.744 3.746 70.615 10.865 104.24z" />
<glyph unicode="&#xe9002;" d="M992.003 350.356c-22.589-114.294-84.074-214.609-170.086-286.579-22.741-0.145-44.079-1.177-46.955-3.097-13.753-9.169-32.461-3.189-38.346 12.259l-69.869 183.404c-0.934 2.453-1.799 4.924-2.598 7.411-0.799-2.489-1.662-4.961-2.598-7.411l-69.869-183.404c-5.884-15.448-24.592-21.428-38.346-12.259-6.228 4.151-98.929 4.151-105.155 0-13.753-9.169-32.461-3.189-38.346 12.259l-69.869 183.404c-0.934 2.453-1.799 4.924-2.598 7.411-0.799-2.489-1.664-4.961-2.598-7.411l-69.869-183.404c-5.884-15.448-24.592-21.428-38.346-12.259-2.878 1.917-24.216 2.949-46.955 3.097-86.012 71.97-147.495 172.285-170.086 286.579l12.284 49.134c6.463 25.855 32.447 41.767 58.415 35.775l25.966-5.993c10.048-2.318 20.539-1.273 30.033 2.749 24.562 10.406 50.967 10.406 75.529 0 9.494-4.022 19.985-5.067 30.033-2.749l25.966 5.993c25.968 5.993 51.95-9.921 58.415-35.775l11.211-44.843 11.211 44.843c6.463 25.855 32.447 41.767 58.415 35.775l25.966-5.993c10.048-2.318 20.539-1.273 30.033 2.749 24.562 10.406 50.967 10.406 75.529 0 9.494-4.022 19.985-5.067 30.033-2.749l25.966 5.993c25.968 5.993 51.95-9.921 58.415-35.775l11.211-44.843 11.211 44.843c6.463 25.855 32.447 41.767 58.415 35.775l25.968-5.993c10.048-2.318 20.539-1.273 30.033 2.749 24.562 10.406 50.967 10.406 75.529 0 9.494-4.022 19.985-5.067 30.033-2.749l25.966 5.993c25.968 5.993 51.95-9.921 58.415-35.775z" />
<glyph unicode="&#xe9003;" d="M382.203 256.344c-10.679 28.034-12.505 58.668-5.228 87.774l13.843 55.372c3.836 15.35 14.553 27.194 28.063 33.032l-11.885 2.743c-25.968 5.993-51.95-9.919-58.415-35.775l-13.843-55.372c-7.276-29.103-5.451-59.739 5.228-87.774l69.869-183.406c5.884-15.448 24.592-21.428 38.346-12.257 2.704 1.803 5.010 4.078 6.829 6.684-1.173 1.686-2.165 3.55-2.937 5.576zM236.313 149.358c-42.673-22.706-94.094-21.533-135.687 3.092l-7.262 4.3c-40.694 56.821-69.796 122.508-83.849 193.608l12.284 49.134c6.465 25.855 32.449 41.769 58.417 35.775l11.883-2.743c-13.508-5.842-71.66-206.629 144.214-283.166zM708.984 256.344c-10.679 28.034-12.505 58.668-5.228 87.774l13.843 55.372c3.836 15.35 14.553 27.194 28.063 33.032l-11.885 2.743c-25.968 5.993-51.95-9.919-58.415-35.775l-13.843-55.372c-7.276-29.103-5.451-59.739 5.228-87.774l69.869-183.406c5.884-15.448 24.592-21.428 38.346-12.257 2.704 1.803 5.010 4.078 6.829 6.684-1.173 1.686-2.165 3.55-2.937 5.576z" />
<glyph unicode="&#xe9004;" d="M581.007 253.785c-14.908 13.377-0.321 34.91-5.846 75.623-3.704 27.294-12.552 34.867-6.211 46.133 7.593 13.49 30.426 19.938 45.624 13.036 29.071-13.206 21.197-70.231 20.368-75.768-4.21-28.094-20.793-64.676-40.492-64.727-6.925-0.018-12.086 4.486-13.443 5.703zM254.226 253.785c-14.908 13.377-0.321 34.91-5.846 75.623-3.704 27.294-12.552 34.867-6.211 46.133 7.593 13.49 30.426 19.938 45.624 13.036 29.071-13.206 21.197-70.231 20.368-75.768-4.21-28.094-20.793-64.676-40.492-64.727-6.925-0.018-12.086 4.486-13.443 5.703zM907.787 253.785c-14.908 13.377-0.321 34.91-5.846 75.623-3.704 27.294-12.552 34.867-6.211 46.133 7.593 13.49 30.426 19.938 45.624 13.036 29.071-13.206 21.197-70.231 20.368-75.768-4.21-28.094-20.793-64.676-40.492-64.727-6.925-0.018-12.086 4.486-13.443 5.703z" />
<glyph unicode="&#xe9005;" d="M917.806 170.721c-89.748-134.716-243.031-223.479-417.048-223.479s-327.3 88.763-417.048 223.479c19.139-15.105 43.308-24.118 69.583-24.118h58.174c62.086 0 112.415 50.331 112.415 112.415v49.134c0 9.77 7.918 17.688 17.688 17.688 9.768 0 17.688-7.918 17.688-17.688v-49.134c0-62.084 50.329-112.415 112.415-112.415h58.174c62.086 0 112.415 50.331 112.415 112.415v49.134c0 9.77 7.92 17.688 17.688 17.688s17.688-7.918 17.688-17.688v-49.134c0-62.084 50.329-112.415 112.415-112.415h58.17c26.274 0 50.444 9.014 69.583 24.118z" />
<glyph unicode="&#xe9006;" d="M642.195-32.505c-44.852-13.181-92.319-20.253-141.437-20.253-174.017 0-327.3 88.763-417.048 223.479 19.139-15.105 43.308-24.118 69.583-24.118h58.174c8.537 0 16.854 0.952 24.846 2.755 97.378-111.473 240.573-181.894 400.214-181.894 1.891 0 3.781 0.010 5.668 0.031z" />
<glyph unicode="&#xe9007;" d="M717.333 99.147c27.607 7.945 62.916 4.341 66.873-8.36 4.944-15.865-40.091-42.56-59.273-52.435-22.107-11.381-72.346-32.574-81.311-19.758-9.384 13.418 24.797 66.476 73.712 80.553z" />
<glyph unicode="&#xe9008;" d="M651.986 883.329l-5.989-108.744c-0.45-8.165-7.211-14.487-15.291-14.487-0.286 0-0.568 0.008-0.856 0.025-8.454 0.466-14.931 7.695-14.463 16.147l3.951 71.79-424.6-380.282c-2.915-2.61-6.573-3.91-10.226-3.91-3.804 0-7.603 1.406-10.557 4.215l-147.732 140.268c3.563 10.551 7.468 20.942 11.703 31.164l146.886-139.466 414.072 370.854-71.792 3.953c-8.454 0.466-14.931 7.695-14.463 16.147 0.466 8.454 7.646 14.931 16.147 14.463l108.744-5.987c4.059-0.223 7.865-2.050 10.577-5.077 2.714-3.027 4.11-7.009 3.888-11.070z" />
<glyph unicode="&#xe9009;" d="M1023.978 883.329l-5.989-108.744c-0.45-8.165-7.211-14.487-15.291-14.487-0.286 0-0.568 0.008-0.856 0.025-8.454 0.466-14.931 7.695-14.463 16.147l3.951 71.79-424.6-380.282c-2.915-2.61-6.573-3.91-10.226-3.91-3.804 0-7.603 1.406-10.557 4.215l-375.371 356.409c7.734 6.788 15.681 13.343 23.826 19.652l362.402-344.097 414.072 370.854-71.792 3.953c-8.454 0.466-14.931 7.695-14.463 16.147 0.466 8.454 7.646 14.931 16.147 14.463l108.744-5.987c4.059-0.223 7.865-2.050 10.577-5.077 2.714-3.027 4.11-7.009 3.888-11.070z" />
<glyph unicode="&#xe900a;" d="M468.056 828.168c0-11.289-9.151-20.439-20.439-20.439s-20.439 9.151-20.439 20.439 9.151 20.439 20.439 20.439 20.439-9.151 20.439-20.439zM876.838 685.094c-11.289 0-20.439-9.151-20.439-20.439s9.151-20.439 20.439-20.439 20.439 9.151 20.439 20.439-9.151 20.439-20.439 20.439z" />
<glyph unicode="&#xe900b;" d="M324.982 480.703c0-11.289-9.151-20.439-20.439-20.439s-20.439 9.151-20.439 20.439 9.151 20.439 20.439 20.439 20.439-9.151 20.439-20.439zM876.838 501.142c-11.289 0-20.439-9.151-20.439-20.439s9.151-20.439 20.439-20.439 20.439 9.151 20.439 20.439-9.151 20.439-20.439 20.439zM570.251 685.094c-11.289 0-20.439-9.151-20.439-20.439s9.151-20.439 20.439-20.439 20.439 9.151 20.439 20.439-9.151 20.439-20.439 20.439z" />
<glyph unicode="&#xe900c;" d="M202.347 685.094c-11.289 0-20.439 9.151-20.439 20.439s9.151 20.439 20.439 20.439 20.439-9.151 20.439-20.439-9.151-20.439-20.439-20.439zM243.226 674.874c-16.932 0-30.659-13.727-30.659-30.659s13.727-30.659 30.659-30.659 30.659 13.727 30.659 30.659-13.727 30.659-30.659 30.659zM590.691 633.996c-16.932 0-30.659-13.727-30.659-30.659s13.727-30.659 30.659-30.659 30.659 13.727 30.659 30.659-13.727 30.659-30.659 30.659zM376.080 582.898c-16.932 0-30.659-13.727-30.659-30.659s13.727-30.659 30.659-30.659 30.659 13.727 30.659 30.659-13.727 30.659-30.659 30.659zM743.984 582.898c-16.932 0-30.659-13.727-30.659-30.659s13.727-30.659 30.659-30.659 30.659 13.727 30.659 30.659-13.727 30.659-30.659 30.659z" />
<glyph unicode="&#xe90d0;" d="M945.277 436.758h-898.271c-26.393 0-47.192 22.706-44.641 48.976 3.603 37.13 11.262 73.070 22.528 107.377 1.884 5.739 12.112 20.93 14.197 26.577 8.010 21.696 16.527 33.747 27.337 53.908 1.173 2.189-4.926 3.812-3.72 5.983 85.456 153.835 249.596 257.938 438.051 257.938 256.623 0 468.16-193.035 497.327-441.824 3.685-31.423-21.169-58.934-52.809-58.934z" />
<glyph unicode="&#xe90d1;" d="M1001.517 436.758c0-38.939-4.443-76.837-12.854-113.22-4.67-20.204-21.661-35.339-42.329-37.015-8.241-0.668-16.654-1.014-25.199-1.014-54.137 0-102.897 13.852-137.022 35.987-34.123-22.136-82.883-35.987-137.020-35.987s-102.897 13.852-137.022 35.987c-34.125-22.136-82.885-35.987-137.022-35.987-61.121 0-115.389 17.657-149.477 44.956-34.090-27.298-88.358-44.956-149.479-44.956-4.689 0-9.335 0.104-13.937 0.309-23.139 1.026-42.736 17.496-47.842 40.087-8.059 35.658-12.313 72.759-12.313 110.854 0 22.187 1.443 44.036 4.239 65.46 21.58 5.237 45.156 8.12 69.853 8.12 61.121 0 115.389-17.657 149.477-44.956 34.090 27.298 88.356 44.956 149.479 44.956 54.137 0 102.897-13.852 137.022-35.987 34.125 22.136 82.883 35.987 137.022 35.987s102.897-13.852 137.022-35.987c34.125 22.136 82.883 35.987 137.022 35.987 27.2 0 53.046-3.497 76.356-9.786 2.655-20.891 4.024-42.182 4.024-63.795z" />
<glyph unicode="&#xe90d2;" d="M989.431 326.915c-15.675-70.041-46.025-134.543-87.651-190.106-30.906-41.252-207.803 14.328-207.803 14.328l-27.231 71.484c-0.934 2.451-1.799 4.924-2.598 7.411-0.799-2.489-1.664-4.961-2.598-7.411l-69.869-183.404c-5.884-15.448-175.964-15.448-181.849 0l-69.869 183.404c-0.934 2.451-1.799 4.924-2.598 7.411-0.799-2.489-1.664-4.961-2.598-7.411l-34.83-91.428s-165.9-38.941-195.934-0.002c-43.824 56.817-75.715 123.309-91.921 195.723l9.713 38.851c6.463 25.855 32.447 41.767 58.415 35.775l25.966-5.993c10.048-2.318 20.539-1.273 30.033 2.749 24.562 10.406 50.967 10.406 75.529 0 9.494-4.022 19.985-5.067 30.033-2.749l25.966 5.993c25.968 5.993 51.95-9.921 58.415-35.775l11.211-44.843 11.211 44.843c6.463 25.855 32.447 41.767 58.415 35.775l25.966-5.993c10.048-2.318 20.539-1.273 30.033 2.749 24.562 10.406 50.967 10.406 75.529 0 9.494-4.022 19.985-5.067 30.033-2.749l25.968 5.993c25.968 5.993 51.95-9.919 58.415-35.775l11.211-44.843 11.211 44.843c6.463 25.855 32.447 41.767 58.415 35.775l25.966-5.993c10.048-2.318 20.539-1.273 30.033 2.749 24.562 10.406 50.967 10.406 75.529 0 9.494-4.022 19.985-5.067 30.033-2.749l25.966 5.993c25.968 5.993 51.95-9.921 58.415-35.775z" />
<glyph unicode="&#xe90d3;" d="M438.703 152.068c-62.339 72.218-33.332 240.891-19.824 246.729l-11.885 2.743c-25.968 5.993-51.95-9.919-58.415-35.775l-13.843-55.372c-7.276-29.103-5.451-59.739 5.228-87.774l69.869-183.406c5.884-15.448 24.592-21.428 38.346-12.257 2.704 1.803 5.010 4.078 6.829 6.684-1.173 1.686-2.165 3.55-2.937 5.576zM80.213 401.54l11.885-2.743c-55.819-67.811 51.486-223.659 152.907-246.557l-36.016-30.755-80.444 9.709-55.335 44.731c-28.104 45.968-49.003 96.822-61.125 150.99l9.713 38.851c6.463 25.855 32.447 41.767 58.415 35.775zM745.66 398.797l-11.885 2.743c-25.968 5.993-51.95-9.919-58.415-35.775l-13.843-55.372c-7.276-29.103-5.451-59.739 5.228-87.774l69.869-183.406c5.884-15.448 24.592-21.428 38.346-12.257 2.704 1.803 5.010 4.078 6.829 6.684-1.173 1.686-2.165 3.55-2.937 5.576l-15.761 111.199s-77.358 149.402-17.43 248.382z" />
<glyph unicode="&#xe90d4;" d="M622.678 279.085c-4.21-28.094-20.793-64.676-40.492-64.727-6.927-0.018-12.088 4.486-13.443 5.703-14.908 13.377-0.321 34.91-5.846 75.623-3.704 27.294-12.552 34.869-6.211 46.133 7.593 13.49 30.426 19.938 45.624 13.036 29.071-13.204 21.197-70.231 20.368-75.768zM274.485 354.853c-15.199 6.904-38.031 0.454-45.624-13.036-6.34-11.264 2.508-18.841 6.211-46.133 5.525-40.713-9.063-62.245 5.846-75.623 1.355-1.216 6.516-5.721 13.443-5.703 19.699 0.051 36.281 36.633 40.492 64.727 0.83 5.537 8.703 62.564-20.368 75.768zM932.709 354.853c-15.199 6.904-38.031 0.454-45.624-13.036-6.34-11.264 2.508-18.841 6.211-46.133 5.525-40.713-9.063-62.245 5.846-75.623 1.355-1.216 6.516-5.721 13.443-5.703 19.699 0.051 36.281 36.633 40.492 64.727 0.83 5.537 8.703 62.564-20.368 75.768z" />
<glyph unicode="&#xe90d5;" d="M936.768 190.297c-86.012-151.834-249.045-254.297-436.009-254.297s-349.997 102.463-436.009 254.297c20.578-26.266 52.59-43.147 88.544-43.147h58.174c62.086 0 112.415 50.331 112.415 112.415v49.134c0 9.768 7.918 17.688 17.688 17.688s17.688-7.92 17.688-17.688v-49.134c0-62.086 50.329-112.415 112.415-112.415h58.174c62.086 0 112.415 50.331 112.415 112.415v49.134c0 9.768 7.918 17.688 17.688 17.688 9.768 0 17.688-7.92 17.688-17.688v-49.134c0-62.086 50.329-112.415 112.415-112.415h58.17c35.954 0.002 67.966 16.881 88.544 43.147z" />
<glyph unicode="&#xe90d6;" d="M578.948-57.93c-25.477-3.996-51.59-6.070-78.19-6.070-186.965 0-349.997 102.463-436.009 254.297 20.578-26.266 52.59-43.147 88.544-43.147h58.174c11.681 0 22.947 1.782 33.539 5.089 76.299-110.312 195.745-188.502 333.943-210.169z" />
<glyph unicode="&#xe90d7;" d="M699.529 90.626c27.607 7.945 62.916 4.341 66.873-8.36 4.944-15.865-40.091-42.56-59.273-52.435-22.107-11.381-72.346-32.574-81.311-19.758-9.384 13.418 24.797 66.474 73.712 80.553z" />
<glyph unicode="&#xe90d8;" d="M226.48 683.236c-1.196-8.382-8.961-14.207-17.341-13.012-74.065 10.567-132.392-5.318-160.028-43.58l-24.218-33.53c9.913 30.191 22.62 59.114 37.814 86.466 37.367 22.36 89.092 29.796 150.761 20.997 8.382-1.196 14.213-8.956 13.012-17.341z" />
<glyph unicode="&#xe90d9;" d="M726.85 693.509c0-18.060-14.641-32.703-32.703-32.703h-527.329c-18.062 0-32.703 14.643-32.703 32.703 0 18.062 14.641 32.703 32.703 32.703h527.329c18.060 0 32.703-14.643 32.703-32.703z" />
<glyph unicode="&#xe90da;" d="M1024 693.509c0-18.060-14.641-32.703-32.703-32.703h-527.329c-18.062 0-32.703 14.643-32.703 32.703 0 18.062 14.641 32.703 32.703 32.703h527.329c18.062 0 32.703-14.643 32.703-32.703z" />
<glyph unicode="&#xe90db;" d="M765.782 693.509c0-56.443-45.755-102.196-102.196-102.196h-388.343c-56.441 0-102.196 45.755-102.196 102.196s45.755 102.196 102.196 102.196h388.343c56.443 0 102.196-45.755 102.196-102.196z" />
<glyph unicode="&#xe90dc;" d="M759.722 728.255c-14.219-39.335-51.893-67.449-96.135-67.449h-388.343c-44.243 0-81.916 28.114-96.135 67.449 14.219 39.337 51.893 67.449 96.135 67.449h388.343c44.243 0 81.916-28.114 96.135-67.449z" />
<glyph unicode="&#xe90dd;" d="M500.074 704.178v-112.867h-40.878v112.867z" />
<glyph unicode="&#xe90de;" d="M500.074 795.704v-134.898h-40.878v134.898z" />
<glyph unicode="&#xe90df;" d="M684.026 697.341v-7.665c0-16.932-13.727-30.659-30.659-30.659h-265.709c-16.932 0-30.659 13.727-30.659 30.659v7.665c0 16.932 13.727 30.659 30.659 30.659h265.709c16.934 0 30.659-13.727 30.659-30.659z" />
<glyph unicode="&#xe90e0;" d="M643.148 673.069c-11.289 0-20.439 9.151-20.439 20.439s9.151 20.439 20.439 20.439 20.439-9.151 20.439-20.439-9.151-20.439-20.439-20.439zM602.269 693.509c0 11.289-9.151 20.439-20.439 20.439s-20.439-9.151-20.439-20.439 9.151-20.439 20.439-20.439 20.439 9.151 20.439 20.439z" />
<glyph unicode="&#xe90e1;" d="M968.814 743.405v-99.794c0-9.185-6.863-16.631-15.329-16.631s-15.329 7.446-15.329 16.631v99.794c0 9.185 6.863 16.631 15.329 16.631 8.466 0.002 15.329-7.446 15.329-16.631zM904.431 760.038c-8.466 0-15.329-7.446-15.329-16.631v-99.794c0-9.185 6.863-16.631 15.329-16.631s15.329 7.446 15.329 16.631v99.794c0 9.183-6.863 16.631-15.329 16.631zM855.377 760.038c-8.466 0-15.329-7.446-15.329-16.631v-99.794c0-9.185 6.863-16.631 15.329-16.631s15.329 7.446 15.329 16.631v99.794c0 9.183-6.863 16.631-15.329 16.631z" />
<glyph unicode="&#xe90e2;" d="M895.234 770.155v-153.293c0-8.466-6.863-15.329-15.329-15.329s-15.329 6.863-15.329 15.329v153.293c0 8.466 6.863 15.329 15.329 15.329s15.329-6.863 15.329-15.329zM978.012 785.485c-8.466 0-15.329-6.863-15.329-15.329v-153.293c0-8.466 6.863-15.329 15.329-15.329s15.329 6.863 15.329 15.329v153.293c0 8.466-6.863 15.329-15.329 15.329zM928.958 785.485c-8.466 0-15.329-6.863-15.329-15.329v-153.293c0-8.466 6.863-15.329 15.329-15.329s15.329 6.863 15.329 15.329v153.293c0 8.466-6.863 15.329-15.329 15.329z" />
<glyph unicode="&#xe90e3;" d="M562.738 925.632c5.987-5.987 5.987-15.691 0-21.68-5.987-5.987-15.691-5.987-21.68 0-33.87 33.87-88.978 33.87-122.847 0-5.987-5.987-15.691-5.987-21.68 0s-5.987 15.691 0 21.68c45.825 45.825 120.382 45.825 166.207 0zM562.738 490.041c5.987 5.987 5.987 15.691 0 21.68-5.987 5.987-15.691 5.987-21.68 0-33.87-33.87-88.978-33.87-122.847 0-5.987 5.987-15.691 5.987-21.68 0s-5.987-15.691 0-21.68c45.825-45.825 120.382-45.825 166.207 0z" />
<glyph unicode="&#xe90e4;" d="M533.833 884.338c5.987-5.987 5.987-15.691 0-21.68-5.987-5.987-15.691-5.987-21.68 0-17.931 17.931-47.106 17.931-65.037 0-5.987-5.987-15.691-5.987-21.68 0s-5.987 15.691 0 21.68c29.886 29.884 78.513 29.884 108.397 0zM533.833 531.334c5.987 5.987 5.987 15.691 0 21.68-5.987 5.987-15.691 5.987-21.68 0-17.931-17.931-47.106-17.931-65.037 0-5.987 5.987-15.691 5.987-21.68 0s-5.987-15.691 0-21.68c29.886-29.884 78.513-29.884 108.397 0z" />
<glyph unicode="&#xe9220;" d="M51.386 532.863c-16.519 11.374-23.989 32.149-18.093 51.319 62.94 204.61 253.455 353.335 478.707 353.335 223.379 0 412.598-146.262 477.11-348.244 7.013-21.956-1.263-45.921-20.247-58.991l-336.841-231.943h-240.045z" />
<glyph unicode="&#xe9221;" d="M969.426 530.282l-336.841-231.943h-240.043l-340.591 234.527c-16.519 11.374-23.989 32.149-18.093 51.319 14.107 45.863 34.626 88.918 60.508 128.121 57.418-1.643 108.045-18.88 140.445-44.827 34.090 27.298 88.356 44.956 149.477 44.956 54.137 0 102.897-13.852 137.022-35.985 34.125 22.134 82.885 35.985 137.022 35.985s102.897-13.852 137.022-35.985c33.767 21.903 81.863 35.695 135.321 35.981 24.96-37.782 44.939-79.146 58.995-123.156 7.015-21.958-1.263-45.921-20.245-58.991z" />
<glyph unicode="&#xe9222;" d="M346.012 440.844l-69.869-183.406c-5.884-15.448-24.592-21.428-38.346-12.257-6.226 4.151-98.929 4.151-105.155 0-13.753-9.169-32.461-3.189-38.346 12.257l-69.871 183.406c-10.679 28.034-12.505 58.668-5.228 87.774l13.843 55.372c6.463 25.855 32.447 41.767 58.415 35.775l25.966-5.993c10.048-2.318 20.539-1.273 30.033 2.749 24.562 10.406 50.967 10.406 75.529 0 9.494-4.022 19.985-5.067 30.033-2.749l25.966 5.993c25.968 5.993 51.95-9.919 58.415-35.775l13.843-55.372c7.276-29.103 5.453-59.739-5.228-87.774zM656.112 921.803c-6.122 24.484-30.726 39.554-55.318 33.878l-24.588-5.674c-9.523-2.197-19.464-1.2-28.464 2.612-23.247 9.843-48.236 9.843-71.484 0-8.999-3.81-18.941-4.809-28.464-2.612l-24.588 5.674c-24.592 5.676-49.197-9.394-55.318-33.878l-13.11-52.437c-6.89-27.56-5.163-56.571 4.95-83.12l2.904-7.626c4.94-12.971 16.762-22.111 30.575-23.468 38.8-3.812 78.46-5.784 118.79-5.784 43.799 0 86.807 2.326 128.781 6.808 7.679 0.82 14.26 5.844 17.009 13.061l6.479 17.009c10.113 26.548 11.842 55.56 4.95 83.12zM999.575 440.844l-69.869-183.406c-5.884-15.448-24.592-21.428-38.346-12.257-6.226 4.151-98.929 4.151-105.155 0-13.753-9.169-32.461-3.189-38.346 12.257l-69.869 183.406c-10.679 28.034-12.505 58.668-5.228 87.774l13.843 55.372c6.463 25.855 32.447 41.767 58.415 35.775l25.966-5.993c10.048-2.318 20.539-1.273 30.033 2.749 24.562 10.406 50.967 10.406 75.529 0 9.494-4.022 19.985-5.067 30.033-2.749l25.966 5.993c25.968 5.993 51.95-9.919 58.415-35.775l13.843-55.372c7.274-29.103 5.449-59.739-5.23-87.774z" />
<glyph unicode="&#xe9223;" d="M298.963 497.309c-4.21-28.096-20.793-64.676-40.492-64.727-6.927-0.018-12.088 4.486-13.443 5.705-14.908 13.377-0.321 34.91-5.846 75.623-3.704 27.294-12.552 34.869-6.211 46.133 7.593 13.49 30.426 19.938 45.624 13.034 29.071-13.204 21.197-70.231 20.368-75.768zM932.157 573.077c-15.199 6.904-38.031 0.456-45.624-13.034-6.34-11.264 2.508-18.839 6.211-46.133 5.525-40.713-9.063-62.245 5.846-75.623 1.355-1.218 6.516-5.721 13.443-5.705 19.699 0.051 36.281 36.631 40.492 64.727 0.83 5.537 8.703 62.564-20.368 75.768zM619.782 911.469c-14.393 6.538-36.016 0.429-43.204-12.345-6.005-10.667 2.375-17.841 5.882-43.689 5.232-38.554-8.582-58.944 5.535-71.615 1.284-1.153 6.171-5.416 12.729-5.402 18.655 0.047 34.358 34.691 38.344 61.295 0.787 5.247 8.243 59.251-19.286 71.756z" />
<glyph unicode="&#xe9224;" d="M532.439 361.696h-40.878c-22.577 0-40.878 18.301-40.878 40.878v180.872c0 22.577 18.301 40.878 40.878 40.878h40.878c22.577 0 40.878-18.301 40.878-40.878v-180.872c0-22.575-18.301-40.878-40.878-40.878z" />
<glyph unicode="&#xe9225;" d="M532.439 361.696c-22.577 0-40.878 18.301-40.878 40.878v180.872c0 22.577 18.301 40.878 40.878 40.878s40.878-18.301 40.878-40.878v-180.872c0-22.575-18.301-40.878-40.878-40.878z" />
<glyph unicode="&#xe9226;" d="M568.208 482.851h-112.415c-8.466 0-15.329 6.863-15.329 15.329s6.863 15.329 15.329 15.329h112.415c8.466 0 15.329-6.863 15.329-15.329s-6.863-15.329-15.329-15.329zM583.537 441.028c0 8.466-6.863 15.329-15.329 15.329h-112.415c-8.466 0-15.329-6.863-15.329-15.329s6.863-15.329 15.329-15.329h112.415c8.466 0 15.329 6.863 15.329 15.329zM573.317 583.446c0 22.577-18.301 40.878-40.878 40.878h-40.878c-22.577 0-40.878-18.301-40.878-40.878s18.301-40.878 40.878-40.878h40.878c22.577 0 40.878 18.303 40.878 40.878zM434.068 751.846c-13.719 0.875-27.339 1.981-40.858 3.307-13.813 1.357-25.635 10.5-30.575 23.468l-2.904 7.626c-10.113 26.548-11.842 55.56-4.95 83.12l13.11 52.437c6.122 24.484 30.726 39.554 55.318 33.878l16.721-3.859c-5.061-5.964-8.86-13.151-10.884-21.242l-14.89-59.56c-7.826-31.305-5.864-64.257 5.625-94.41l3.299-8.662c2.387-6.271 6.195-11.755 10.988-16.102zM732.277 298.339h89.037s-114.459 115.256-64.41 318.683l-11.885 2.743c-25.968 5.993-51.95-9.921-58.415-35.775l-13.843-55.372c-7.276-29.103-5.451-59.739 5.228-87.774zM24.425 440.846c-10.679 28.034-12.505 58.67-5.228 87.774l13.843 55.372c6.463 25.853 32.447 41.767 58.415 35.775l11.885-2.743c2.289-251.802 93.1-285.919 93.1-285.919l-117.727-32.766zM659.162 367.265c0 22.577-18.301 40.878-40.878 40.878h-212.567c-22.577 0-40.878-18.301-40.878-40.878s18.301-40.878 40.878-40.878h212.567c22.577 0 40.878 18.301 40.878 40.878z" />
<glyph unicode="&#xe9227;" d="M483.181 615.944c0 2.62 0.247 5.181 0.717 7.665 2.481 0.47 5.044 0.717 7.663 0.717h40.878c22.577 0 40.878-18.303 40.878-40.878 0-2.62-0.247-5.181-0.717-7.665-2.481-0.47-5.044-0.717-7.663-0.717h-40.878c-22.577 0-40.878 18.303-40.878 40.878z" />
<glyph unicode="&#xe9228;" d="M618.283 326.387h-158.736c-22.577 0-40.878 18.301-40.878 40.878s18.301 40.878 40.878 40.878h158.736c22.577 0 40.878-18.301 40.878-40.878s-18.301-40.878-40.878-40.878z" />
<glyph unicode="&#xe9229;" d="M1009.429 494.804c2.199-19.043 3.33-38.413 3.33-58.045 0-276.3-223.776-500.335-499.978-500.758-272.627-0.417-496.752 219.312-501.464 491.9-0.392 22.661 0.724 44.982 3.25 66.877 1.026 8.889 8.623 15.562 17.572 15.562h2.293c9.768 0 17.688-7.918 17.688-17.688v-49.134c0-62.086 50.329-112.415 112.415-112.415h58.174c62.086 0 112.415 50.329 112.415 112.415v49.134c0 9.768 7.918 17.688 17.688 17.688 9.768 0 17.688-7.918 17.688-17.688v-49.134c0-62.086 50.329-112.415 112.415-112.415h58.174c62.086 0 112.415 50.329 112.415 112.415v49.134c0 9.768 7.918 17.688 17.688 17.688 9.768 0 17.688-7.918 17.688-17.688v-49.134c0-62.086 50.329-112.415 112.415-112.415h58.17c62.086 0 112.415 50.329 112.415 112.415v49.134c0 9.768 7.918 17.688 17.688 17.688h2.301c8.936 0 16.535-6.657 17.559-15.536z" />
<glyph unicode="&#xe922a;" d="M599.175-56.438c-28.063-4.926-56.929-7.515-86.394-7.56-272.627-0.417-496.752 219.312-501.464 491.9-0.392 22.661 0.724 44.984 3.25 66.877 1.026 8.889 8.623 15.562 17.572 15.562h2.293c9.768 0 17.688-7.92 17.688-17.688v-49.134c0-62.084 50.329-112.415 112.415-112.415h31.905c42.712-197.808 202.854-352.338 402.734-387.542z" />
<glyph unicode="&#xe922b;" d="M766.261 228.938c55.096 27.227 130.796 33.068 143.957 7.838 16.441-31.519-68.211-104.847-104.836-132.928-42.213-32.365-139.91-96.092-163.658-72.52-24.858 24.674 26.918 149.367 124.538 197.61z" />
<glyph unicode="&#xe922c;" d="M446.595 643.349c0-8.466-6.863-15.329-15.329-15.329h-10.22v-10.22c0-8.466-6.863-15.329-15.329-15.329s-15.329 6.863-15.329 15.329v10.22h-10.22c-8.466 0-15.329 6.863-15.329 15.329s6.863 15.329 15.329 15.329h10.22v10.22c0 8.466 6.863 15.329 15.329 15.329s15.329-6.863 15.329-15.329v-10.22h10.22c8.466 0 15.329-6.863 15.329-15.329zM792.476 767.175h-10.22v10.22c0 8.466-6.863 15.329-15.329 15.329s-15.329-6.863-15.329-15.329v-10.22h-10.22c-8.466 0-15.329-6.863-15.329-15.329s6.863-15.329 15.329-15.329h10.22v-10.22c0-8.466 6.863-15.329 15.329-15.329s15.329 6.863 15.329 15.329v10.22h10.22c8.466 0 15.329 6.863 15.329 15.329s-6.863 15.329-15.329 15.329z" />
<glyph unicode="&#xe922d;" d="M261.059 755.764h-10.22v10.22c0 8.466-6.863 15.329-15.329 15.329s-15.329-6.863-15.329-15.329v-10.22h-10.22c-8.466 0-15.329-6.863-15.329-15.329s6.863-15.329 15.329-15.329h10.22v-10.22c0-8.466 6.863-15.329 15.329-15.329s15.329 6.863 15.329 15.329v10.22h10.22c8.466 0 15.329 6.863 15.329 15.329s-6.863 15.329-15.329 15.329z" />
<glyph unicode="&#xe9300;" d="M13.036 394.082c-1.188 14.066-1.795 28.302-1.795 42.677 0 276.562 224.197 500.758 500.758 500.758s500.758-224.197 500.758-500.758c0-14.375-0.607-28.611-1.795-42.677z" />
<glyph unicode="&#xe9301;" d="M11.307 428.583h1001.386c-2.379-148.695-69.571-281.641-174.558-371.829-6.818-5.858-15.55-9.014-24.541-9.014h-603.363c-8.877 0-17.496 3.119-24.233 8.899-105.063 90.19-172.31 223.185-174.691 371.943z" />
<glyph unicode="&#xe9302;" d="M785.884 837.365v-224.83c0-67.729-54.906-122.635-122.635-122.635-43.278 0-81.321 22.42-103.148 56.277-22.095-32.253-59.198-53.412-101.243-53.412h-102.196c-67.729 0-122.635 54.906-122.635 122.635v334.376c0 6.649 6.248 11.526 12.697 9.915l29.408-7.354c26.338-6.583 53.383-9.913 80.53-9.913l44.739-0.448c82.19-0.824 164.126 6.179 245.611 16.958 5.312 0.703 10.733 1.065 16.237 1.065 67.729 0 122.635-54.906 122.635-122.635z" />
<glyph unicode="&#xe9303;" d="M496.65 498.699c-11.904-3.853-24.605-5.933-37.792-5.933h-102.196c-67.729 0-122.635 54.906-122.635 122.635v334.376c0 6.649 6.248 11.528 12.699 9.915l29.406-7.354c26.338-6.583 53.383-9.913 80.53-9.913l44.739-0.448c31.791-0.319 63.543 0.536 95.248 2.324z" />
<glyph unicode="&#xe9304;" d="M328.048 326.387h76.649c-79.018 0-143.074-64.056-143.074-143.074v-138.671c-27.28 15.781-52.935 34.062-76.649 54.53v84.142c0 79.018 64.056 143.074 143.074 143.074z" />
<glyph unicode="&#xe9305;" d="M839.026 183.313v-84.142c-87.737-75.727-202.035-121.521-327.026-121.521-97.611 0-188.698 27.928-265.709 76.23v129.433c0 79.018 64.056 143.074 143.074 143.074h306.587c79.018 0 143.074-64.056 143.074-143.074z" />
<glyph unicode="&#xe9306;" d="M716.391 141.736v-110.878c0-8.172-4.903-15.564-12.449-18.7-0.135-0.055-0.27-0.112-0.405-0.168-13.339-5.527-28.022 4.262-28.022 18.7v111.745c0 11.738 9.895 21.167 21.8 20.394 10.861-0.703 19.076-10.207 19.076-21.093zM326.687 162.829c-10.863-0.703-19.078-10.209-19.078-21.095v-110.878c0-8.172 4.903-15.564 12.449-18.7 0.135-0.055 0.27-0.112 0.405-0.168 13.339-5.527 28.022 4.262 28.022 18.7v111.747c0.002 11.738-9.895 21.167-21.798 20.394z" />
<glyph unicode="&#xe9307;" d="M261.623 101.557v-98.566c-27.28 15.781-52.935 34.062-76.649 54.53v44.036z" />
<glyph unicode="&#xe9308;" d="M839.026 101.557v-44.036c-87.737-75.725-202.035-121.521-327.026-121.521-97.611 0-188.698 27.928-265.709 76.23v89.327z" />
<glyph unicode="&#xe9309;" d="M716.391 101.557v-96.207c-13.328-5.966-26.963-11.368-40.878-16.173v112.38zM307.609-20.524c13.328-5.966 26.963-11.368 40.878-16.173v138.254h-40.878z" />
<glyph unicode="&#xe930a;" d="M512 215.335c-50.797 0-91.976 41.179-91.976 91.976v19.076h183.952v-19.076c0-50.797-41.179-91.976-91.976-91.976z" />
<glyph unicode="&#xe930b;" d="M287.17 510.339c-28.22 0-51.098 22.878-51.098 51.098v20.439c0 28.22 22.878 51.098 51.098 51.098s51.098-22.878 51.098-51.098v-20.439c0-28.22-22.878-51.098-51.098-51.098z" />
<glyph unicode="&#xe930c;" d="M266.731 592.096v-40.878c0-16.715 8.026-31.556 20.435-40.878-28.218 0.002-51.094 22.878-51.094 51.098v20.439c0 28.22 22.875 51.096 51.094 51.098-12.409-9.322-20.435-24.163-20.435-40.878zM736.83 632.974v40.878c0 124.17-100.661 224.83-224.83 224.83s-224.83-100.661-224.83-224.83v-81.756c0-102.913 69.146-189.675 163.513-216.366v-69.781c0-33.864 27.452-61.317 61.317-61.317s61.317 27.454 61.317 61.317v69.781c68.647 19.415 123.945 70.619 148.991 136.703 4.603-1.363 9.478-2.093 14.522-2.093 28.22 0 51.098 22.878 51.098 51.098v20.439c0 28.22-22.878 51.098-51.098 51.098z" />
<glyph unicode="&#xe930d;" d="M736.83 673.852v-81.756c0-103.814-70.362-191.194-165.998-217.053-18.442-4.987-37.904-4.987-56.347 0-95.637 25.86-165.998 113.239-165.998 217.053v81.756c0 113.77 84.506 207.803 194.172 222.756 109.666-14.953 194.172-108.985 194.172-222.756z" />
<glyph unicode="&#xe930e;" d="M746.369 644.461c0-30.377-22.005-55.090-49.054-55.090h-370.631c-27.049 0-49.054 24.713-49.054 55.090v46.519c0 30.377 22.005 55.090 49.054 55.090h370.629c27.049 0 49.054-24.713 49.054-55.090v-46.519z" />
<glyph unicode="&#xe930f;" d="M393.112 589.371h-66.427c-27.049 0-49.054 24.715-49.054 55.090v46.519c0 30.375 22.005 55.090 49.054 55.090h66.427c-27.049 0-49.054-24.715-49.054-55.090v-46.521c0-30.375 22.005-55.088 49.054-55.088z" />
<glyph unicode="&#xe9310;" d="M445.573 658.523c0-16.932-13.727-30.659-30.659-30.659s-30.659 13.727-30.659 30.659 13.727 30.659 30.659 30.659 30.659-13.727 30.659-30.659zM609.086 689.182c-16.932 0-30.659-13.727-30.659-30.659s13.727-30.659 30.659-30.659 30.659 13.727 30.659 30.659-13.727 30.659-30.659 30.659z" />
<glyph unicode="&#xe9311;" d="M450.683 673.852c0-8.466-6.863-15.329-15.329-15.329s-15.329 6.863-15.329 15.329 6.863 15.329 15.329 15.329 15.329-6.863 15.329-15.329zM629.525 689.182c-8.466 0-15.329-6.863-15.329-15.329s6.863-15.329 15.329-15.329 15.329 6.863 15.329 15.329-6.863 15.329-15.329 15.329z" />
<glyph unicode="&#xe9312;" d="M512 449.022c-33.866 0-61.317 27.452-61.317 61.317 0 8.466 6.863 15.329 15.329 15.329h91.976c8.466 0 15.329-6.863 15.329-15.329 0-33.866-27.452-61.317-61.317-61.317z" />
<glyph unicode="&#xe9313;" d="M527.329 450.953c-4.899-1.261-10.036-1.931-15.329-1.931-33.864 0-61.317 27.452-61.317 61.317 0 8.466 6.863 15.329 15.329 15.329h30.659c-8.466 0-15.329-6.863-15.329-15.329 0-28.572 19.542-52.578 45.988-59.386z" />
<glyph unicode="&#xe9314;" d="M305.859 857.804c41.238 49.933 103.622 81.756 173.438 81.756v-163.513c-69.818 0-132.202 31.824-173.438 81.756z" />
<glyph unicode="&#xe9315;" d="M718.141 857.804c-41.238-49.933-103.622-81.756-173.438-81.756h-65.405c-33.678 0-65.628 7.405-94.306 20.676-1.053 0.486 14.594 107.579 111.661 147.577h53.344c69.814 0 126.909-36.564 168.144-86.496z" />
<glyph unicode="&#xe9316;" d="M736.83 566.551c0.002-124.172-100.659-224.834-224.83-224.834s-224.832 100.663-224.83 224.834v14.385c0 6.962 5.774 12.223 12.047 10.978 140.701-27.928 284.864-27.928 425.565 0 6.273 1.245 12.047 9.529 12.047 2.567z" />
<glyph unicode="&#xe9317;" d="M573.317 367.574c19.223 0 37.882 2.414 55.69 6.951-34.086-20.813-74.145-32.809-117.008-32.809-124.172 0-224.832 100.663-224.83 224.834v26.567c0 6.96 5.774 0.041 12.047-1.206 16.441-3.264 32.927-6.144 49.452-8.646 4.795-119.933 103.538-215.692 224.648-215.692zM508.489 428.583c22.44 0 44.88 1.703 67.145 5.104 8.37 1.279 14.117 9.099 12.838 17.469s-9.108 14.105-17.469 12.838c-39.2-5.989-78.989-6.318-118.253-0.977-8.388 1.141-16.114-4.734-17.257-13.124-1.141-8.388 4.734-16.114 13.122-17.255 19.877-2.704 39.877-4.055 59.874-4.055zM649.788 514.94c-1.279 8.37-9.099 14.115-17.469 12.838-79.852-12.204-160.897-12.875-240.885-1.989-8.39 1.132-16.114-4.734-17.257-13.122s4.734-16.116 13.122-17.257c39.065-5.316 78.372-7.971 117.682-7.971 44.106 0 88.213 3.346 131.971 10.032 8.368 1.279 14.115 9.099 12.836 17.469z" />
<glyph unicode="&#xe9318;" d="M685.733 763.784h-347.465c-42.264 0-76.647-34.383-76.647-76.647v-38.834c0-42.264 34.383-76.647 76.647-76.647h347.465c42.264 0 76.647 34.383 76.647 76.647v38.834c0 42.264-34.383 76.647-76.647 76.647zM731.721 648.303c0-25.357-20.629-45.988-45.988-45.988h-347.465c-25.359 0-45.988 20.631-45.988 45.988v38.834c0 25.357 20.629 45.988 45.988 45.988h347.465c25.359 0 45.988-20.631 45.988-45.988z" />
<glyph unicode="&#xe9319;" d="M685.733 571.657h-336.33c-0.607 6.731-0.916 13.549-0.916 20.439v10.22h337.246c25.359 0 45.988 20.631 45.988 45.988v38.834c0 25.357-20.629 45.988-45.988 45.988h-329.35c2.876 10.549 6.5 20.789 10.812 30.659h318.538c42.264 0 76.647-34.383 76.647-76.647v-38.834c0-42.264-34.383-76.647-76.647-76.647z" />
<glyph unicode="&#xe931a;" d="M482.363 565.928c-5.987 5.989-5.987 15.693 0 21.68 5.987 5.985 15.693 5.985 21.678 0 2.13-2.13 4.954-3.303 7.957-3.303s5.827 1.173 7.957 3.303c5.987 5.985 15.693 5.985 21.678 0 5.987-5.989 5.987-15.693 0-21.68-7.92-7.92-18.444-12.282-29.637-12.282s-21.712 4.362-29.633 12.282z" />
<glyph unicode="&#xe931b;" d="M601.932 19.8c-28.22 0-51.098 22.878-51.098 51.098v44.711h102.196v-44.711c0-28.22-22.878-51.098-51.098-51.098z" />
<glyph unicode="&#xe931c;" d="M652.008 101.557h-100.152c-3.387 0-6.132 2.745-6.132 6.132v28.615c0 3.387 2.745 6.132 6.132 6.132h100.152c3.387 0 6.132-2.745 6.132-6.132v-28.615c0-3.387-2.745-6.132-6.132-6.132z" />
<glyph unicode="&#xe931d;" d="M453.319-30.055l-0.867-0.867c-5.747-5.747-15.066-5.747-20.813 0l-163.511 163.511-27.35-27.35c-5.095-5.095-13.357-5.095-18.45 0-5.095 5.095-5.095 13.355 0 18.45l43.053 43.053c5.095 5.095 13.357 5.095 18.45 0 2.814-2.814 4.074-6.598 3.779-10.277l165.708-165.708c5.747-5.747 5.747-15.066 0-20.813z" />
<glyph unicode="&#xe931e;" d="M908.519 346.826c0-8.466-6.863-15.329-15.329-15.329h-10.22v-10.22c0-8.466-6.863-15.329-15.329-15.329s-15.329 6.863-15.329 15.329v10.22h-10.22c-8.466 0-15.329 6.863-15.329 15.329s6.863 15.329 15.329 15.329h10.22v10.22c0 8.466 6.863 15.329 15.329 15.329s15.329-6.863 15.329-15.329v-10.22h10.22c8.466 0 15.329-6.863 15.329-15.329zM157.381 484.79h-10.22v10.22c0 8.466-6.863 15.329-15.329 15.329s-15.329-6.863-15.329-15.329v-10.22h-10.22c-8.466 0-15.329-6.863-15.329-15.329s6.863-15.329 15.329-15.329h10.22v-10.22c0-8.466 6.863-15.329 15.329-15.329s15.329 6.863 15.329 15.329v10.22h10.22c8.466 0 15.329 6.863 15.329 15.329s-6.863 15.329-15.329 15.329zM293.193 176.104c9.799-9.799 9.799-25.682 0-35.48l-21.287-21.287c-1.96-1.96-5.136-1.96-7.096 0l-28.384 28.384c-1.96 1.96-1.96 5.136 0 7.096l21.287 21.287c9.796 9.799 25.682 9.799 35.48 0zM451.167 5.454l-64.596 64.596c-9.451 9.451-24.772 9.451-34.223 0s-9.451-24.772 0-34.223l64.596-64.596c9.451-9.451 24.772-9.451 34.223 0s9.451 24.772 0 34.223z" />
<glyph unicode="&#xe931f;" d="M812.312 36.009c-83.668-62.799-187.645-100.009-300.312-100.009-47.719 0-93.879 6.675-137.598 19.141-6.019 8.384-9.563 18.663-9.563 29.77 0 25.159 18.181 46.070 42.121 50.311-1.367 3.191-1.668 6.859-0.591 10.444 2.434 8.108 10.982 12.707 19.090 10.273l66.372-19.93z" />
<glyph unicode="&#xe9320;" d="M512-64c-47.719 0-93.879 6.675-137.598 19.141-6.019 8.382-9.563 18.661-9.563 29.77 0 0.047 0 0.092 0 0.139 8.539-6.414 19.156-10.215 30.659-10.215h310.192c-59.582-25.013-125.022-38.834-193.689-38.834z" />
<glyph unicode="&#xe9510;" d="M22 459c0 270.364 218.968 489.588 489.238 490 270.084 0.41 490.762-219.916 490.762-490 0-170.868-87.458-321.31-220.052-409-77.408 51.194-170.196 81-269.948 81-91.39 0-176.934-25.018-250.16-68.582-12.614-7.504-28.594-6.722-40.406 1.99-120.966 89.226-199.434 232.746-199.434 394.592z" />
<glyph unicode="&#xe9511;" d="M280 72.704c-6.134-3.304-12.188-6.732-18.16-10.286-12.614-7.504-28.594-6.722-40.406 1.99-21.95 16.19-42.498 34.168-61.434 53.718v632.874h120z" />
<glyph unicode="&#xe9512;" d="M240 721h-240v40c0 66.274 53.726 120 120 120h20c55.228 0 100-44.772 100-100z" />
<glyph unicode="&#xe9513;" d="M240 781v-60h-80v60c0 45.29-30.108 83.548-71.4 95.85 10.008 2.706 20.536 4.15 31.4 4.15h20c55.228 0 100-44.772 100-100z" />
<glyph unicode="&#xe9514;" d="M880 761v-625.544c-89.798-102.056-221.378-166.456-368-166.456-109.414 0-210.45 35.862-292 96.47v695.53c0 47.772-12.592 89.024-53 108.334-15.65 7.478-14.334 11.666-14.334 11.666h607.334c66.274 0 120-53.726 120-120z" />
<glyph unicode="&#xe9515;" d="M220 65.47v695.53c0 30.826-11.622 58.936-30.724 80.188-9.32 10.368-38.614 39.812-59.026 39.812h29.75c66.274 0 120-53.726 120-120v-733.704c-20.964 11.29-41.010 24.060-60 38.174z" />
<glyph unicode="&#xe9516;" d="M625 786h-150c-8.284 0-15 6.716-15 15s6.716 15 15 15h150c8.284 0 15-6.716 15-15s-6.716-15-15-15zM720 746c0 8.284-6.716 15-15 15h-310c-8.284 0-15-6.716-15-15s6.716-15 15-15h310c8.284 0 15 6.716 15 15zM720 596c0 8.284-6.716 15-15 15h-310c-8.284 0-15-6.716-15-15s6.716-15 15-15h310c8.284 0 15 6.716 15 15zM720 386c0 8.284-6.716 15-15 15h-310c-8.284 0-15-6.716-15-15s6.716-15 15-15h310c8.284 0 15 6.716 15 15zM600 206c0 8.284-6.716 15-15 15h-190c-8.284 0-15-6.716-15-15s6.716-15 15-15h190c8.284 0 15 6.716 15 15zM600 266c0 8.284-6.716 15-15 15h-160.666c-8.284 0-15-6.716-15-15s6.716-15 15-15h160.666c8.284 0 15 6.716 15 15zM720 456c0 8.284-6.716 15-15 15h-310c-8.284 0-15-6.716-15-15s6.716-15 15-15h310c8.284 0 15 6.716 15 15zM760 526c0 8.284-6.716 15-15 15h-390c-8.284 0-15-6.716-15-15s6.716-15 15-15h390c8.284 0 15 6.716 15 15z" />
<glyph unicode="&#xe9517;" d="M623.584-40.642l-47.068 34.3-58.24-0.018 107.992 331.748 105.31-34.28zM778.94-40.642l47.068 34.3 58.24-0.018-107.992 331.748-105.31-34.28z" />
<glyph unicode="&#xe9518;" d="M468.878-53l-34.742 46.744-55.612 17.298 201.746 284.636 90.354-64.042zM933.646-53l34.742 46.744 55.612 17.298-201.746 284.634-90.354-64.042z" />
<glyph unicode="&#xe9519;" d="M949.39 385.818c0-137.036-111.090-248.128-248.128-248.128s-248.126 111.090-248.126 248.128 111.090 248.128 248.128 248.128 248.126-111.092 248.126-248.128z" />
<glyph unicode="&#xe951a;" d="M724.196 625.71c10.258 25.28 47.88 17.796 47.682-9.484-0.16-22.222 26.776-33.378 42.376-17.552 19.152 19.43 51.044-1.88 40.422-27.010-8.652-20.468 11.964-41.084 32.432-32.432 25.13 10.622 46.44-21.272 27.010-40.422-15.826-15.6-4.67-42.536 17.552-42.376 27.282 0.198 34.764-37.424 9.484-47.682-20.592-8.356-20.592-37.512 0-45.866 25.28-10.258 17.796-47.88-9.484-47.682-22.222 0.16-33.378-26.776-17.552-42.376 19.43-19.152-1.88-51.044-27.010-40.422-20.468 8.652-41.084-11.964-32.432-32.432 10.622-25.13-21.272-46.44-40.422-27.010-15.6 15.826-42.536 4.67-42.376-17.552 0.198-27.282-37.424-34.764-47.682-9.484-8.356 20.592-37.512 20.592-45.866 0-10.258-25.28-47.88-17.796-47.682 9.484 0.16 22.222-26.776 33.378-42.376 17.552-19.152-19.43-51.044 1.88-40.422 27.010 8.652 20.468-11.964 41.084-32.432 32.432-25.128-10.622-46.44 21.272-27.010 40.422 15.826 15.6 4.67 42.536-17.552 42.376-27.282-0.198-34.764 37.424-9.484 47.682 20.592 8.356 20.592 37.51 0 45.866-25.28 10.258-17.796 47.88 9.484 47.682 22.222-0.16 33.378 26.776 17.552 42.376-19.43 19.152 1.88 51.044 27.010 40.422 20.468-8.652 41.084 11.964 32.432 32.432-10.622 25.128 21.272 46.44 40.422 27.010 15.6-15.826 42.536-4.67 42.376 17.552-0.198 27.282 37.424 34.764 47.682 9.484 8.354-20.592 37.51-20.592 45.866 0z" />
<glyph unicode="&#xe951b;" d="M889.238 385.818c0-103.816-84.16-187.976-187.976-187.976s-187.976 84.16-187.976 187.976 84.16 187.976 187.976 187.976 187.976-84.162 187.976-187.976z" />
<glyph unicode="&#xe951c;" d="M859.162 385.818c0-87.206-70.694-157.9-157.9-157.9s-157.9 70.694-157.9 157.9 70.694 157.9 157.9 157.9 157.9-70.696 157.9-157.9z" />
<glyph unicode="&#xe951d;" d="M799.104 388.46l-42.514-111.6c-3.58-9.4-14.964-13.038-23.334-7.46-3.788 2.526-6.292 6.576-6.856 11.094l-4.060 32.482s-0.504 16.422-7.062 29.044c-5.954 11.458-22.308 11.576-28.028 0-5.32-10.764-6.946-28.112-6.946-28.112l-4.176-33.414c-0.564-4.518-3.068-8.568-6.856-11.094-8.37-5.58-19.752-1.94-23.334 7.46l-42.514 111.6c-6.498 17.058-7.61 35.7-3.182 53.41l8.424 33.692c3.934 15.732 19.744 25.416 35.544 21.768l15.8-3.646c6.114-1.41 12.498-0.776 18.276 1.672 14.946 6.332 31.012 6.332 45.958 0 5.778-2.448 12.162-3.084 18.276-1.672l15.8 3.646c15.802 3.646 31.612-6.036 35.544-21.768l8.424-33.692c4.424-17.71 3.314-36.352-3.184-53.41z" />
<glyph unicode="&#xe951e;" d="M671.636 276.86c0.47-1.232 1.074-2.366 1.786-3.392-1.106-1.586-2.51-2.97-4.156-4.066-8.37-5.58-19.752-1.94-23.334 7.458l-42.514 111.6c-6.498 17.060-7.61 35.7-3.182 53.41l8.424 33.694c3.934 15.732 19.744 25.414 35.544 21.768l7.232-1.67c-8.22-3.552-14.74-10.76-17.076-20.1l-8.424-33.694c-4.428-17.71-3.316-36.35 3.182-53.41zM746.228 280.494l-4.060 32.482s-0.504 16.422-7.062 29.044c-3.924 7.552-22.714 10.794-33.692 8.634 5.468-0.096 10.928-2.988 13.862-8.634 6.558-12.622 7.062-29.044 7.062-29.044l4.060-32.482c0.564-4.518 3.068-8.568 6.856-11.094 5.98-3.988 13.5-3.266 18.612 0.898h0.002c-3.106 2.536-5.138 6.182-5.64 10.196z" />
<glyph unicode="&#xe951f;" d="M750.092 386.904c-9.072 8.14-0.194 21.242-3.556 46.016-2.254 16.608-7.638 21.216-3.78 28.072 4.62 8.208 18.514 12.132 27.762 7.932 17.69-8.036 12.898-42.736 12.394-46.104-2.562-17.096-12.652-39.354-24.638-39.386-4.216-0.012-7.356 2.728-8.182 3.47z" />
<glyph unicode="&#xe9610;" d="M1001.517 436.92c0-249.157-181.851-455.827-420.024-494.443-70.725 129.809-202.441 214.872-349.816 225.916l-161.162 12.075c-44.782 75.016-70.515 162.728-70.515 256.452 0 276.337 223.686 500.411 499.812 500.922 276.041 0.509 501.705-224.792 501.705-500.922z" />
<glyph unicode="&#xe9611;" d="M938.156 551.418c0-158.086-128.112-286.24-286.148-286.24s-286.148 128.153-286.148 286.24 128.112 286.24 286.148 286.24 286.148-128.153 286.148-286.24z" />
<glyph unicode="&#xe9612;" d="M108.17 125.931c-13.704 17.289-26.293 35.505-37.655 54.536v608.121c0 33.876 27.452 61.338 61.317 61.338h122.635c-33.866 0-61.317-27.462-61.317-61.338v-633.059c0-45.152-56.933-64.978-84.98-29.598z" />
<glyph unicode="&#xe9613;" d="M581.493 788.587v-846.112c-26.283-4.26-53.25-6.475-80.735-6.475-2.645 0-5.284 0.020-7.92 0.061-179.723 2.788-323.194 151.1-323.194 330.903v521.623c0 33.876 27.452 61.338 61.317 61.338h289.214c33.866 0 61.317-27.462 61.317-61.338z" />
<glyph unicode="&#xe9614;" d="M166.969 63.505c-24.58 22.001-46.973 46.395-66.818 72.814v650.224c0 16.938 13.727 30.669 30.659 30.669h155.337c-16.932 0-30.659-13.731-30.659-30.669v-683.378c0-45.908-54.317-70.272-88.52-39.66z" />
<glyph unicode="&#xe9615;" d="M237.094 817.212h282.060c16.932 0 30.659-13.731 30.659-30.669v-848.17c-16.139-1.57-32.502-2.373-49.054-2.373-70.883 0-138.324 14.733-199.435 41.301-57.806 25.134-94.889 82.55-94.889 145.6v663.642c0 16.938 13.727 30.669 30.659 30.669z" />
<glyph unicode="&#xe9616;" d="M480.319 725.206v-715.602c0-16.938-13.727-30.669-30.659-30.669h-152.053c-46.889 20.846-89.985 48.684-127.963 82.194v664.077c0 16.938 13.727 30.669 30.659 30.669h249.357c16.932 0 30.659-13.731 30.659-30.669z" />
<glyph unicode="&#xe9617;" d="M324.982 714.984c-16.932 0-30.659 13.727-30.659 30.659v40.911c0 16.932 13.727 30.659 30.659 30.659s30.659-13.727 30.659-30.659v-40.911c0-16.934-13.727-30.659-30.659-30.659z" />
<glyph unicode="&#xe9618;" d="M937.197 454.238c-95.079-95.111-238.69-112.086-351.093-50.93-2.013 1.096-4.327 1.504-6.588 1.124l-119.559-20.102c-6.927-1.165-12.936 4.846-11.773 11.775l20.096 119.597c0.38 2.261-0.029 4.574-1.124 6.588-61.61 113.31-43.899 258.318 53.131 353.403 114.984 112.679 300.774 112.362 415.392-0.689 117.251-115.647 117.758-304.486 1.517-420.766z" />
<glyph unicode="&#xe9619;" d="M871.017 520.436c-79.189-79.216-207.582-79.216-286.771 0s-79.189 207.649 0 286.863 207.582 79.216 286.771 0 79.191-207.647 0-286.863z" />
<glyph unicode="&#xe961a;" d="M904.282 564.164c-8.842-15.658-19.93-30.391-33.263-43.727-79.189-79.216-207.582-79.216-286.771 0-79.189 79.214-79.189 207.647 0 286.863 13.332 13.337 28.061 24.429 43.713 33.275-43.68-77.34-32.594-177.258 33.263-243.138 65.857-65.877 165.743-76.968 243.058-33.273z" />
<glyph unicode="&#xe961b;" d="M704.017 863.247c0 13.071 10.592 23.664 23.658 23.664s23.656-10.596 23.656-23.664-10.592-23.664-23.656-23.664c-13.067 0-23.658 10.596-23.658 23.664zM727.33 790.603c-12.924 0-23.397-10.479-23.397-23.405v-302.969c0-12.926 10.475-23.405 23.397-23.405s23.397 10.479 23.397 23.405v302.969c0 12.926-10.473 23.405-23.397 23.405z" />
<glyph unicode="&#xe961c;" d="M222.786 352.071c0 8.468 6.863 15.333 15.329 15.333h153.293c8.466 0 15.329-6.866 15.329-15.333s-6.863-15.333-15.329-15.333h-153.293c-8.466 0-15.329 6.866-15.329 15.333zM258.555 295.845c-8.466 0-15.329-6.866-15.329-15.333s6.863-15.333 15.329-15.333h112.415c8.466 0 15.329 6.866 15.329 15.333s-6.863 15.333-15.329 15.333zM370.97 173.171h-112.415c-8.466 0-15.329-6.866-15.329-15.333s6.863-15.333 15.329-15.333h112.415c8.466 0 15.329 6.866 15.329 15.333s-6.863 15.333-15.329 15.333zM411.848 234.507h-194.172c-8.466 0-15.329-6.866-15.329-15.333s6.863-15.333 15.329-15.333h194.172c8.466 0 15.329 6.866 15.329 15.333s-6.863 15.333-15.329 15.333z" />
<glyph unicode="&#xe961d;" d="M427.178 575.009v-47.182c0-8.687-7.039-15.728-15.722-15.728h-47.167v-47.182c0-8.687-7.039-15.728-15.722-15.728h-47.167c-8.683 0-15.722 7.041-15.722 15.728v47.182h-47.167c-8.683 0-15.722 7.041-15.722 15.728v47.182c0 8.687 7.039 15.728 15.722 15.728h47.167v47.182c0 8.687 7.039 15.728 15.722 15.728h47.167c8.683 0 15.722-7.041 15.722-15.728v-47.182h47.167c8.683 0 15.722-7.041 15.722-15.728z" />
<glyph unicode="&#xe961e;" d="M427.178 575.009v-47.182c0-8.687-7.039-15.728-15.722-15.728h-47.167v-47.182c0-8.687-7.039-15.728-15.722-15.728h-23.585v204.457h23.583c8.683 0 15.722-7.041 15.722-15.728v-47.182h47.167c8.685 0 15.724-7.041 15.724-15.728zM386.299 76.053c0-8.468-6.863-15.333-15.329-15.333h-112.415c-8.466 0-15.329 6.866-15.329 15.333s6.863 15.333 15.329 15.333h112.415c8.466 0.002 15.329-6.863 15.329-15.333z" />
<glyph unicode="&#xe9700;" d="M102.196 144.794c-64.122 84.16-102.196 189.238-102.196 303.206 0 276.562 224.197 500.758 500.758 500.758s500.758-224.197 500.758-500.758c0-113.969-38.074-219.046-102.196-303.206z" />
<glyph unicode="&#xe9701;" d="M362.144 211.969l-91.841-13.833c-16.744-2.522-32.361 9.008-34.883 25.749l-76.109 505.278c-2.522 16.744 9.008 32.361 25.749 34.883l91.841 13.833c16.744 2.522 32.361-9.008 34.883-25.749l76.109-505.278c2.522-16.744-9.005-32.363-25.749-34.883z" />
<glyph unicode="&#xe9702;" d="M997.903 307.73l-639.763-96.366c-16.744-2.522-32.361 9.008-34.883 25.749l-76.107 505.28c-2.522 16.744 9.008 32.361 25.749 34.883l639.763 96.366c16.744 2.522 32.361-9.008 34.883-25.749l76.109-505.278c2.522-16.746-9.008-32.363-25.751-34.885z" />
<glyph unicode="&#xe9703;" d="M952.392 362.883l-654.841-98.637c-5.582-0.84-10.788 3.003-11.628 8.582l-63.932 424.435c-0.84 5.582 3.003 10.788 8.582 11.628l654.841 98.637c5.582 0.84 10.788-3.003 11.628-8.582l63.932-424.435c0.84-5.58-3.003-10.786-8.582-11.628z" />
<glyph unicode="&#xe9704;" d="M567.876 625.45c7.538-18.107 9.343-38.090 5.167-57.254l-27.311-125.376c-2.299-10.559-13.813-16.247-23.597-11.658-4.429 2.077-7.736 5.978-9.061 10.69l-9.512 33.861s-3.162 17.367-12.151 29.727c-8.159 11.221-25.553 8.728-29.78-4.486-3.928-12.286-2.88-30.98-2.88-30.98l0.91-36.169c0.123-4.891-1.889-9.594-5.508-12.885-8-7.268-20.676-5.222-25.984 4.19l-63.030 111.767c-9.635 17.085-13.798 36.713-11.928 56.236l3.556 37.146c1.662 17.345 16.909 30.162 34.28 28.817l17.371-1.345c6.72-0.521 13.402 1.177 19.149 4.701 14.865 9.12 31.936 11.691 48.829 7.356 6.53-1.676 13.414-1.331 19.685 1.149l16.204 6.404c16.204 6.404 34.552-1.355 41.248-17.441zM796.069 696.431c-6.696 16.086-25.044 23.844-41.248 17.441l-16.204-6.404c-6.271-2.477-13.155-2.825-19.685-1.149-16.893 4.335-33.964 1.764-48.829-7.356-5.747-3.526-12.427-5.222-19.149-4.701l-17.371 1.345c-17.371 1.345-32.621-11.472-34.28-28.817l-3.556-37.146c-1.87-19.523 2.293-39.153 11.928-56.236l63.030-111.767c5.308-9.414 17.986-11.458 25.984-4.192 3.622 3.291 5.633 7.994 5.508 12.883l-0.91 36.169s-1.049 18.692 2.882 30.98c4.225 13.214 21.621 15.705 29.78 4.486 8.989-12.362 12.151-29.727 12.151-29.727l9.512-33.861c1.322-4.711 4.629-8.613 9.061-10.69 9.784-4.589 21.298 1.1 23.597 11.658l27.311 125.376c4.174 19.164 2.371 39.147-5.167 57.254zM307.956 622.91c-6.696 16.086-25.044 23.842-41.248 17.441-6.265-2.475-9.993-8.946-8.989-15.607l34.612-229.787c3.826 2.279 6.778 6.072 7.824 10.874l27.311 125.378c4.174 19.164 2.371 39.147-5.167 57.252zM871.077 731.384c-17.371 1.345-32.621-11.472-34.28-28.817l-3.556-37.146c-1.87-19.523 2.293-39.153 11.928-56.236l63.030-111.767c2.414-4.28 6.35-7.037 10.679-8.088l-34.612 229.785c-1.006 6.661-6.473 11.748-13.189 12.27z" />
<glyph unicode="&#xe9705;" d="M536.872 599.393c4.464-11.638 5.239-24.186 2.24-36.284l-6.030-24.337c-2.205-8.901-14.269-10.706-18.741-2.702-0.615 1.1-1.235 2.107-1.862 3.023-10.226 14.933-27.705 22.739-45.624 20.396-17.745-2.342-32.453-14.297-38.387-31.192-0.284-0.811-0.55-1.678-0.793-2.6-2.377-8.969-14.571-10.309-18.898-2.101l-11.712 22.219c-5.811 11.025-8.069 23.388-6.528 35.758l3.101 24.907c0.689 5.529 5.678 9.488 11.219 8.901l5.993-0.636c12.985-1.371 25.911 1.38 37.381 7.975 7.162 4.118 14.816 5.057 22.761 2.77 12.727-3.65 25.931-3.227 38.205 1.226l5.666 2.054c5.239 1.899 11.033-0.746 13.026-5.95zM777.927 633.117l-8.985 23.435c-1.995 5.202-7.789 7.849-13.026 5.95l-5.666-2.054c-12.276-4.454-25.479-4.877-38.205-1.226-7.945 2.285-15.599 1.349-22.761-2.77-11.47-6.596-24.398-9.349-37.381-7.975l-5.993 0.636c-5.541 0.587-10.53-3.37-11.219-8.901l-3.101-24.907c-1.541-12.37 0.719-24.733 6.528-35.758l11.712-22.219c4.327-8.208 16.521-6.868 18.898 2.101 0.243 0.92 0.507 1.788 0.793 2.6 5.933 16.895 20.644 28.848 38.387 31.192 17.921 2.342 35.399-5.463 45.624-20.396 0.625-0.914 1.247-1.921 1.862-3.023 4.472-8.006 16.535-6.199 18.741 2.702l6.030 24.337c2.998 12.094 2.226 24.639-2.238 36.277z" />
<glyph unicode="&#xe9706;" d="M899.321 144.794c-91.477-120.063-235.972-197.552-398.563-197.552s-307.086 77.489-398.563 197.552v366.567c0 16.932 13.727 30.659 30.659 30.659h120.591c16.932 0 30.659-13.727 30.659-30.659v-14.307h574.339c22.577 0 40.878-18.301 40.878-40.878z" />
<glyph unicode="&#xe9707;" d="M132.854 542.020h63.361c-16.932 0-30.659-13.727-30.659-30.659v-435.386c-23.188 20.907-44.412 43.95-63.361 68.821v366.565c0 16.932 13.727 30.659 30.659 30.659z" />
<glyph unicode="&#xe9708;" d="M778.731 92.359h-555.944c-11.289 0-20.439 9.151-20.439 20.439v245.269c0 11.289 9.151 20.439 20.439 20.439h555.944c11.289 0 20.439-9.151 20.439-20.439v-245.269c0-11.289-9.151-20.439-20.439-20.439z" />
<glyph unicode="&#xe9709;" d="M282.060 92.359h-59.273c-11.289 0-20.439 9.151-20.439 20.439v245.269c0 11.289 9.151 20.439 20.439 20.439h59.273c-11.289 0-20.439-9.151-20.439-20.439v-245.269c0-11.289 9.151-20.439 20.439-20.439z" />
<glyph unicode="&#xe970a;" d="M508.934 303.436c0 8.466 6.863 15.329 15.329 15.329h153.293c8.466 0 15.329-6.863 15.329-15.329s-6.863-15.329-15.329-15.329h-153.293c-8.466 0-15.329 6.861-15.329 15.329zM697.996 257.448h-173.733c-8.466 0-15.329-6.863-15.329-15.329s6.863-15.329 15.329-15.329h173.733c8.466 0 15.329 6.863 15.329 15.329s-6.863 15.329-15.329 15.329zM595.8 182.759h-71.537c-8.466 0-15.329-6.863-15.329-15.329s6.863-15.329 15.329-15.329h71.537c8.466 0 15.329 6.863 15.329 15.329 0 8.468-6.863 15.329-15.329 15.329z" />
<glyph unicode="&#xe970b;" d="M447.617 259.016v-47.167c0-8.683-7.039-15.722-15.722-15.722h-47.167v-47.167c0-8.683-7.039-15.722-15.722-15.722h-47.167c-8.683 0-15.722 7.039-15.722 15.722v47.167h-47.167c-8.683 0-15.722 7.039-15.722 15.722v47.167c0 8.683 7.039 15.722 15.722 15.722h47.167v47.167c0 8.683 7.039 15.722 15.722 15.722h47.167c8.683 0 15.722-7.039 15.722-15.722v-47.167h47.167c8.683 0.002 15.722-7.037 15.722-15.722z" />
<glyph unicode="&#xe970c;" d="M447.617 259.016v-47.167c0-8.683-7.039-15.722-15.722-15.722h-47.167v-47.167c0-8.683-7.039-15.722-15.722-15.722h-23.585v204.391h23.583c8.683 0 15.722-7.039 15.722-15.722v-47.167h47.167c8.685 0 15.724-7.039 15.724-15.724z" />
<glyph unicode="&#xe97d0;" d="M1024 436.758c0-276.562-224.197-500.758-500.758-500.758s-500.758 224.197-500.758 500.758 224.197 500.758 500.758 500.758 500.758-224.197 500.758-500.758z" />
<glyph unicode="&#xe97d1;" d="M694.93 612.535c0-191.899-155.566-347.465-347.465-347.465s-347.465 155.566-347.465 347.465 155.566 347.465 347.465 347.465 347.465-155.566 347.465-347.465z" />
<glyph unicode="&#xe97d2;" d="M694.922 614.928c0.901-133.792-73.82-250.216-183.944-309.058v55.874c81.83 53.463 135.892 145.89 135.838 250.943-0.082 164.989-138.375 301.332-303.347 299.174-136.149-1.782-250.369-94.453-284.762-220.111-2.882-10.526-12.337-17.899-23.252-17.899-15.812 0-27.415 15.015-23.258 30.27 40.189 147.462 175.067 255.877 335.265 255.877 191.555 0 346.169-153.52 347.459-345.072z" />
<glyph unicode="&#xe97d3;" d="M646.816 612.535c0-165.328-134.025-299.351-299.351-299.351s-299.351 134.023-299.351 299.351 134.023 299.351 299.351 299.351 299.351-134.023 299.351-299.351z" />
<glyph unicode="&#xe97d4;" d="M598.93 450.060c-53.33-82.372-146.031-136.877-251.465-136.877-165.328 0-299.351 134.025-299.351 299.351 0 105.433 54.507 198.135 136.879 251.465-30.297-46.793-47.889-102.578-47.889-162.473 0-165.328 134.025-299.351 299.351-299.351 59.897-0.002 115.681 17.59 162.475 47.885z" />
<glyph unicode="&#xe97d5;" d="M517.668 630.507l-73.957-194.139c-6.23-16.351-26.031-22.681-40.59-12.975-6.592 4.394-10.945 11.438-11.926 19.299l-7.064 56.504s-0.877 28.566-12.286 50.523c-10.357 19.93-38.806 20.137-48.76 0-9.253-18.722-12.084-48.903-12.084-48.903l-7.266-58.127c-0.983-7.861-5.337-14.904-11.926-19.299-14.559-9.707-34.362-3.374-40.59 12.975l-73.957 194.139c-11.305 29.676-13.236 62.102-5.535 92.91l14.653 58.611c6.843 27.368 34.346 44.212 61.832 37.87l27.487-6.342c10.634-2.455 21.741-1.349 31.791 2.908 26.001 11.015 53.949 11.015 79.95 0 10.050-4.257 21.157-5.363 31.791-2.908l27.487 6.342c27.489 6.344 54.991-10.5 61.832-37.868l14.653-58.611c7.701-30.808 5.77-63.237-5.535-92.91z" />
<glyph unicode="&#xe97d6;" d="M435.498 424.957c-8.895-7.248-21.974-8.501-32.378-1.566-6.592 4.394-10.945 11.438-11.926 19.299l-7.064 56.506s-0.875 28.566-12.286 50.523c-5.104 9.821-14.602 14.853-24.114 15.021 19.098 3.759 51.783-1.884 58.609-15.021 11.409-21.958 12.286-50.523 12.286-50.523l7.064-56.506c0.873-6.984 4.407-13.324 9.809-17.733zM221.973 630.507c-11.305 29.676-13.236 62.102-5.535 92.91l14.653 58.611c4.061 16.247 15.405 28.784 29.704 34.965l-12.582 2.902c-27.489 6.344-54.991-10.5-61.832-37.87l-14.653-58.611c-7.701-30.808-5.77-63.235 5.535-92.91l73.959-194.139c6.228-16.351 26.031-22.681 40.59-12.977 2.864 1.909 5.302 4.317 7.227 7.074-1.241 1.786-2.291 3.757-3.109 5.901z" />
<glyph unicode="&#xe97d7;" d="M432.41 627.799c-15.779 14.16-0.339 36.954-6.187 80.048-3.92 28.891-13.287 36.909-6.575 48.833 8.037 14.279 32.206 21.105 48.294 13.798 30.773-13.978 22.438-74.341 21.559-80.201-4.456-29.739-22.009-68.461-42.861-68.514-7.332-0.020-12.795 4.748-14.23 6.036z" />
<glyph unicode="&#xe97d8;" d="M1024 260.982c0-158.035-128.112-286.148-286.148-286.148s-286.148 128.112-286.148 286.148 128.112 286.148 286.148 286.148 286.148-128.112 286.148-286.148z" />
<glyph unicode="&#xe97d9;" d="M999.473 135.065c-46.581-94.901-144.173-160.23-257.024-160.23-158.035 0-286.148 128.112-286.148 286.148 0 87.265 39.065 165.408 100.661 217.893-18.651-37.996-29.124-80.732-29.124-125.917 0-158.035 128.112-286.148 286.148-286.148 70.768 0 135.536 25.692 185.487 68.254z" />
<glyph unicode="&#xe97da;" d="M1023.321 175.275c-48.778-158.918-217.75-248.523-376.668-199.745s-248.523 217.75-199.745 376.668c47.302 154.109 207.633 243.035 362.216 203.794l-26.221 56.784c-3.55 7.685-0.196 16.795 7.491 20.343 7.685 3.55 16.772 0.239 20.343-7.491l45.657-98.876c1.705-3.691 1.874-7.908 0.468-11.724-1.404-3.816-4.268-6.915-7.959-8.619l-98.876-45.657c-7.426-3.43-16.178-0.415-19.963 6.722-0.133 0.251-0.26 0.507-0.38 0.769-3.548 7.685-0.196 16.795 7.491 20.343l75.185 34.718c-142.105 42.309-292.551-38.086-336.142-180.101-43.817-142.757 36.676-294.546 179.431-338.364s294.546 36.676 338.364 179.431c2.483 8.094 11.058 12.642 19.154 10.156 8.094-2.483 12.64-11.058 10.156-19.151z" />
<glyph unicode="&#xe97db;" d="M945.309 234.826h-20.147c0.441 69.939 0.764 152.652-0.082 162.8-1.304 15.64-10.23 28.249-22.743 32.124-5.846 1.811-21.042 4.057-35.867-14.132-15.689-19.248-99.792-171.427-109.331-188.716-2.618-4.748-2.534-10.528 0.223-15.201 2.757-4.668 7.777-7.536 13.2-7.536h123.734c-0.161-23.344-0.341-46.158-0.519-66.67-0.072-8.466 6.731-15.387 15.199-15.46h0.133c8.405 0 15.254 6.776 15.327 15.199 0.065 7.689 0.288 33.898 0.521 66.934h20.351c8.468 0 15.329 6.861 15.329 15.329s-6.861 15.329-15.329 15.329zM894.502 234.826h-97.93c36.423 65.571 84.24 149.858 93.664 161.424 1.279 1.57 2.367 2.596 3.176 3.233 0.474-0.995 0.959-2.489 1.116-4.401 0.681-8.186 0.456-82.872-0.027-160.257zM738.813 138.2c0.108-8.466-6.669-15.413-15.135-15.519-39.159-0.493-67.692-0.685-88.534-0.685-52.594 0-56.248 1.22-58.309 1.907-5.371 1.79-9.369 5.803-10.97 11.004-2.927 9.51 0.574 14.095 17.396 36.118 14.203 18.598 40.639 53.209 84.914 116.47 14.111 20.163 23.207 38.45 27.039 54.362l1.143 8.942c-0.491 30.387-25.365 54.959-55.868 54.959-26.642 0-49.7-18.939-54.826-45.027-1.631-8.306-9.686-13.711-17.997-12.088-8.306 1.633-13.721 9.688-12.088 17.997 7.943 40.433 43.652 69.779 84.91 69.779 47.715 0 86.535-38.82 86.535-86.535 0-0.648-0.043-1.3-0.125-1.942l-1.376-10.765c-0.065-0.511-0.155-1.020-0.274-1.521-4.619-19.92-15.372-42.035-31.959-65.738-44.351-63.369-70.983-98.271-85.384-117.133 27.204-0.239 73.252 0.029 115.389 0.554 0.063 0.002 0.129 0.002 0.196 0.002 8.374-0.004 15.217-6.741 15.321-15.141z" />
</font>
</defs>
</svg>
